<?xml version="1.0" encoding="UTF-8"?>
<svg id="Layer_1" data-name="Layer 1" xmlns="http://www.w3.org/2000/svg" viewBox="0 0 800 600">
  <defs>
    <style>
      .cls-1 {
        fill: #fff;
      }

      .cls-2 {
        fill: #98acb4;
      }

      .cls-3 {
        fill: #c3c4c7;
      }

      .cls-4 {
        fill: #b4b5b9;
      }

      .cls-5 {
        fill: #3c4349;
      }

      .cls-6 {
        fill: #546169;
      }

      .cls-7 {
        fill: #93969a;
      }
    </style>
  </defs>
  <path class="cls-1" d="m800,600H0V0h800v600Zm-225.7-419.93c6.05-.83,6.54-1.51,3.76-5.15-9.06-8.31-16.44-18.13-24.36-27.46-3.2-3.77-6.2-6.81-11.56-4.57-.7-.43-1.36-1.18-2.1-1.26-6.21-.68-7.99-4.72-8.05-10.23-.01-.95-.71-1.88-.75-2.83-.2-4.81-2.73-5.75-6.58-3.81-4.93,2.47-8.04.35-10.74-3.6-1.02-1.5-2.26-2.87-3.5-4.2-9.48-10.2-19.2-20.2-28.45-30.62-13.75-15.5-27.59-30.91-41.99-45.81-6.18-6.4-12.38-9.22-22.57-6.25-31.66,9.25-63.43,18.18-95.15,27.28-20.41,5.86-40.75,11.96-61.07,18.12-29.92,9.07-60.16,17.05-90.26,25.49-.66-.16-.93.23-1.12.76l.08-.12c-7.97,1.5-12.57,6.22-13.95,12.8-2.49,11.88-.35,23.7.32,35.44.57,10,.7,20.05,1.44,30.06.78,10.52,1.28,21.13,1.55,31.72.16,6.4.18,12.88.83,19.27,1.58,15.56,2.07,31.17,2.65,46.78-4.86.25-7.12,3.39-8.92,7.47-4.91,11.13-2.48,22.43.71,32.97,3.15,10.43,6.58,20.93,11.38,30.93,6.07,12.63,10.75,26.01,19.75,37.01,14.8,18.07,29.46,36.28,44.94,53.76,15.82,17.86,30.23,36.92,46.79,54.15,6.64,6.9,12.18,14.85,18.35,22.22,10.52,12.58,21.14,25.08,31.72,37.62,7.07,8.38,15.38,13.74,27.06,13.26,9.85-.4,18.57-4.59,27.71-7.14,9.07-2.53,17.42-7.59,26.26-11.08,4.76-1.88,9.34-4.25,14.19-5.78,10.07-3.18,19.99-6.74,29.77-10.71,5.47-2.22,10.99-4.32,16.52-6.39,8.17-3.05,16.39-5.97,24.55-9.04,10.46-3.94,20.79-8.25,31.35-11.87,9.34-3.2,19.09-5.24,28.39-8.56,14.57-5.21,29.02-10.81,43.3-16.79,5.07-2.12,11.23-3.8,12.56-10.69,2.23-1.04,4.49-2.02,6.68-3.14,2.86-1.46,6.89-2.57,6.99-6.11.24-9.23,2.5-18.15,3.28-27.27.5-5.83.31-12.06,1.89-17.37,3.46-11.67,3.83-23.69,5.96-35.48,2.87-15.86,4.62-31.93,6.84-47.91.16-.78.47-1.61-.61-2.02.63-3.16,1.46-6.3,1.86-9.49,1.43-11.39,2.14-22.9,4.21-34.16,2.47-13.42-1.57-25.03-9.59-34.88-10.61-13.03-22.23-25.26-34-37.31-6.71-6.87-13.1-14.04-19.63-21.07h0c-2.48-3.52-5.68-6.36-8.89-9.18-.41-1.24-.83-2.47-1.24-3.71.09-1.49.26-2.95,1.44-4.05Z"/>
  <path class="cls-6" d="m170.95,105.18c30.1-8.44,60.35-16.42,90.26-25.49,20.32-6.16,40.66-12.27,61.07-18.12,31.71-9.1,63.49-18.03,95.15-27.28,10.18-2.98,16.39-.15,22.57,6.25,14.4,14.9,28.23,30.31,41.99,45.81,9.24,10.42,18.96,20.41,28.45,30.62,1.24,1.33,2.48,2.7,3.5,4.2,2.7,3.95,5.81,6.07,10.74,3.6,3.86-1.93,6.39-.99,6.58,3.81.04.95.74,1.89.75,2.83.06,5.51,1.84,9.55,8.05,10.23.74.08,1.4.82,2.1,1.26-6.03,2.51-12.24,4.46-18.53,6.18-4.42,1.21-8.8,2.55-13.46,3.91.77,1.23,1.14,1.97,1.65,2.6,6.83,8.42,13.54,16.93,20.58,25.17,2.41,2.83,4.72,6.03,8.51,7.39.28.38.55.76.83,1.14.76,1.89,1.64,1.82,2.62.16,6.73-1.23,13.22-3.28,19.6-5.74.88.24,1.58.05,2.03-.8.66-.04,1.32-.07,1.99-.11.96.52,2.36-.23,3.04,1.08-11.84,4.07-23.68,8.14-35.57,12.23,1.91,3.98,3.34,4.78,8.09,3.79,5.5-1.14,11.17-2.08,16.32-4.18,4.98-2.03,11.27-2.12,14.26-7.88,3.21,2.82,6.4,5.65,8.89,9.17-1.15.09-2.37-.04-3.44.3-11.03,3.53-22.04,7.13-33.06,10.72-.65.21-1.22.49-.69,1.67,9.05-2.25,17.89-5.38,26.73-8.47,3.54-1.24,7.48-1.57,10.46-4.22,6.53,7.03,12.93,14.21,19.63,21.07,11.77,12.05,23.39,24.28,34,37.31,8.02,9.85,12.05,21.46,9.59,34.88-2.07,11.26-2.78,22.77-4.21,34.16-.4,3.19-1.23,6.33-1.86,9.49-2.05-.19-3.95.41-5.84,1.06-12.24,4.22-24.5,8.38-36.7,12.7-44.46,15.73-88.9,31.51-133.35,47.28-25.94,9.2-51.87,18.44-77.82,27.62-5.52,1.95-11.1,3.71-17.29,5.77-.51-11.65,1.04-22.16,1.46-32.71.29-7.18,2.56-14.82-2.73-21.11-2.87-3.41-4.47-7.22-5.96-11.25-2.36-6.38-4.83-12.69-9.19-18.09-6.03-7.47-12.28-14.81-17.8-22.65-5.73-8.13-12.1-15.72-18.31-23.45-6.46-8.04-13.16-15.89-19.49-24.04-9.01-11.61-17.63-23.53-26.69-35.1-16.2-20.71-32.69-41.19-48.88-61.91-5.34-6.83-9.92-14.24-15.18-21.14-9.94-13.03-20.21-25.82-30.15-38.86-2.78-3.65-5.42-7.53-6.33-12.23,0,0-.08.12-.08.12.37-.25.75-.51,1.12-.76Zm330.23,16.97c.96-1.02,1.21-2.1.09-3.72-.16,1.41-.27,2.44-.39,3.47-.35.65-.69,1.3-1.04,1.95-3.76,1.79-8.18.07-11.88,2.2-6.2-11.13-13.26-21.77-20.98-31.84-5.7-7.42-12.8-13.82-19.62-20.32-4.14-3.94-8.41-6.96-15.31-4.72-27.73,8.98-55.65,17.37-83.53,25.87-15.89,4.85-31.9,9.32-47.74,14.34-6.57,2.08-13.51,3.21-20.24,6.58,6.76,6.19,13.51,11.52,18.77,18.34-.65,1.43-2.03,1.44-3.3,1.84-13.81,4.39-28.49,6.09-41.3,13.66-4.58,2.7-6.67,7.53-5.09,13.61,3.28,12.61,12.32,21.58,20.41,30.76,15.19,17.26,32.07,32.89,51.28,45.78,2.69,1.81,4.8,4.3,3.16,8.02-.95,2.14-.09,3.67,1.3,5.38,3.54,4.34,7.03,8.68,11.15,12.54,5.94,5.58,10.08,12.7,17.32,17.38,5.01,3.23,10.02,2.47,14.98,3.61,1.38.32,2.47-.83,2.69-2.37.23-1.66-.75-2.07-2.18-2.66-5.77-2.38-10.18-6.07-10.74-12.88.85-.03,1.7-.05,2.55-.08,1.48,1.34,2.68,2.01,5.12,1.29,4.12-1.22,7.84-3.13,11.65-4.94.9-.13,1.81-.25,2.71-.38,3.1,1.29,5.45-.64,7.97-1.84,7.46-3.93,16.68-3.72,23.23-9.85.93-.87,1.78.32,2.68.48,4.12,1.4,7.17.21,9.09-3.74,2.42-.02,5.62,2.02,6.09-2.76.18-1.88,2.6-1.56,3.14-.82,1.91,2.62,3.94.95,5.73.39,5.6-1.74,11.05-4.04,16.71-5.53,2.97-.78,4.46-2.21,4.71-5.13,1.45.39,2.54.69,3.63.98,2.46,2.38,4.73-.56,7.11-.26,6.26-1.49,11.91-4.7,18.18-6.28,1.38-.35,4.38-.67,4.52-3.53,1.43.28,3.01,3.31,4.24-.23,5.92-.4,11.14-3.19,16.68-4.86,2.54-.68,5.06-1.45,7.62-2.03,2.14-.48,4.47-1.41,6.44.11,4.19,3.25,11.23,3.89,15.5,1.34,1.69-1.01,1.74-2.04,1.03-3.7-2.57-6.05-9.18-9.54-10.36-16.45-5.85-1.09-7.19-6.85-10.73-10.34-3.65-3.61-6.23-9.61-13.16-5.85-.91-1.5-1.38-3.12-1.35-4.88,8.94-3.69,13.86,2.5,19.39,7.8-6.6-12.93-12.05-26.61-27.4-31.86-4.29-9.67-8.58-19.34-12.86-29,3.96-.19,8.2.62,11.26-2.98.35-.64.71-1.29,1.06-1.93Zm-70.07,270.94l3.84-2.97c.84,2.56,1.91,2.39,2.94.17.59-1.27-.42-2.94.94-4.24,2.25-.01,2.89,4.03,5.93,2.36.14-1.53.05-3.21.49-4.76.44-1.56,1.21-2.98.12-4.51-3.3.09-1.42,3.65-3.54,4.95-1.83-1.01-3.85-5.47-5.94-1.81-1.57,2.76-3.19,1.48-4.86,1.84-.82-.04-1.64-.11-2.46-.11-3.59,0-4.65,2.7-5.4,5.42-.63,2.28-.69,5.07,1.61,6.22,2.52,1.25,4.6-.73,6.34-2.57Zm-20.2-.43c-7.57-1.54-10.55.17-10.87,6.3-.07,1.32-.05,2.65-.07,3.98-2.72-.49-4.94,2.52-8.04,1.31.97-3.76,5.71-1.6,6.75-4.72-1.8-1.78-3.64,1.72-5.45-.1.41-3.03,4.54-1.42,5.28-4.16-10.08,1.44-8.91,1.26-7.95,12.51,3.26-1.28,6.63-1.99,9.49-4.03.82.12,2.07.36,2.26-.42,1.15-4.63,5.45-4.75,8.71-6.37,0,2.84,2.05,3.73,4,2.83,3.03-1.39,7.3-2.14,6.82-6.97-2-1.77-4.64.05-6.62-1.41,1.56-2.86,5.17.13,6.48-2.81-6.47-1.29-7.01-1.08-10.78,4.05Z"/>
  <path class="cls-5" d="m169.9,105.82c.9,4.7,3.55,8.58,6.33,12.23,9.94,13.04,20.2,25.82,30.15,38.86,5.26,6.9,9.84,14.31,15.18,21.14,16.19,20.72,32.68,41.2,48.88,61.91,9.06,11.57,17.67,23.49,26.69,35.1,6.33,8.15,13.03,16,19.49,24.04,6.21,7.73,12.58,15.32,18.31,23.45,5.52,7.84,11.77,15.17,17.8,22.65,4.36,5.39,6.83,11.71,9.19,18.09,1.49,4.03,3.09,7.84,5.96,11.25,5.29,6.29,3.02,13.93,2.73,21.11-.42,10.55-1.96,21.06-1.46,32.71,6.19-2.06,11.78-3.82,17.29-5.77,25.95-9.18,51.88-18.41,77.82-27.62,44.45-15.77,88.89-31.55,133.35-47.28,12.2-4.32,24.46-8.48,36.7-12.7,1.89-.65,3.79-1.25,5.84-1.06,1.08.41.77,1.24.61,2.02-.5.04-1.03-.03-1.49.13-22.19,7.93-44.22,16.34-66.61,23.64-11.8,3.85-23.65,7.67-35.27,11.93-29.26,10.73-59.1,19.82-87.99,31.6-11.33,4.62-23.22,7.83-34.81,11.82-4.31,1.48-8.38,3.79-12.76,4.96-10.42,2.79-20.34,6.98-30.53,10.4-1.73.58-3.16,1.06-3.35,3.56-1.52,19.61-4.39,39.19-4.62,58.8-.27,24.09-3.91,47.97-3.37,72.05-2.99,1.84-5.89,1.52-8.72-.39l-6.32-7.42c-.22-.44-.36-.94-.67-1.31-18.1-21.43-36.18-42.86-54.32-64.26-15.35-18.1-30.8-36.11-46.12-54.23-13.81-16.34-27.73-32.6-41.16-49.25-4.73-5.87-10.71-10.89-13.59-18.19-6.34-16.05-12.64-32.12-19.14-48.1-3.25-8-6.43-15.95-6.14-24.79.08-3.34.42-6.69-.31-10,.58-1.8-.52-3.35-.72-5.03-.57-15.61-1.06-31.22-2.65-46.78-.65-6.39-.67-12.87-.83-19.27-.27-10.59-.77-21.2-1.55-31.72-.74-10.01-.87-20.06-1.44-30.06-.67-11.74-2.81-23.57-.32-35.44,1.38-6.57,5.98-11.3,13.95-12.8Z"/>
  <path class="cls-6" d="m359.96,564.86c-.55-24.08,3.09-47.96,3.37-72.05.22-19.61,3.1-39.19,4.62-58.8.19-2.5,1.62-2.97,3.35-3.56,10.19-3.43,20.11-7.62,30.53-10.4,4.38-1.17,8.44-3.48,12.76-4.96,11.59-3.99,23.49-7.2,34.81-11.82,28.89-11.78,58.73-20.87,87.99-31.6,11.62-4.26,23.47-8.09,35.27-11.93,22.39-7.3,44.42-15.71,66.61-23.64.45-.16.99-.09,1.49-.13-2.23,15.98-3.97,32.05-6.84,47.91-2.13,11.78-2.49,23.81-5.96,35.48-1.58,5.31-1.4,11.55-1.89,17.37-.78,9.12-3.04,18.04-3.28,27.27-.09,3.54-4.13,4.65-6.99,6.11-2.19,1.12-4.45,2.1-6.68,3.14-6,.53-11.22,3.3-16.72,5.43-15.08,5.87-30.34,11.3-45.52,16.89-21.25,7.82-42.46,15.73-63.76,23.42-14.97,5.41-29.88,11.02-44.81,16.53-14.77,5.45-29.19,11.88-44.33,16.39-4.04,1.2-8.05,2.6-11.93,4.23-7.3,3.07-14.31,6.87-22.09,8.73Zm204.25-96.35c1.86.19,3.41-.41,3.4-1.39-.04-4.4,3.64-4.61,6.27-5.78,3.31-1.48,6.82-2.5,10.26-3.7,1.26-.44,2.81-1.04,3.57.44,1.54,3.01,3.16,1.71,5.25.68,3.46-1.7,6.82-3.77,11.12-1.49,2.89,1.53,7.33-.88,7.83-3.94,1.2-7.32,2.21-14.68,3.09-22.05.42-3.53-1.35-5.11-4.82-3.86-12.46,4.49-24.89,9.08-37.33,13.63-2.9,1.06-4.51,3.03-4.99,6.18-1.07,6.98-2.36,13.93-3.63,21.29Zm-13.78-6.52c-.85,3.83-.27,5.64,3.96,4.41-3.17.19-1.72-2.9-3.96-4.41Zm2.06-1.33c1.1.24,1.87,1.91,3.17.47.57-.63.72-1.76-.32-2.48-1.11.23-2.2.47-2.84,2.01Zm20.56,3.7c-.24.14-.61.24-.66.43-.06.21.16.5.26.75.3-.19.61-.38.91-.57-.17-.2-.33-.4-.51-.61Z"/>
  <path class="cls-3" d="m359.96,564.86c7.78-1.86,14.79-5.66,22.09-8.73,3.88-1.63,7.89-3.03,11.93-4.23,15.14-4.5,29.55-10.93,44.33-16.39,14.93-5.51,29.84-11.12,44.81-16.53,21.29-7.69,42.51-15.6,63.76-23.42,15.19-5.59,30.44-11.02,45.52-16.89,5.5-2.14,10.72-4.91,16.72-5.43-1.33,6.88-7.48,8.56-12.56,10.69-14.28,5.97-28.72,11.58-43.3,16.79-9.29,3.32-19.04,5.36-28.39,8.56-10.57,3.62-20.89,7.94-31.35,11.87-8.16,3.07-16.38,5.99-24.55,9.04-5.53,2.07-11.05,4.17-16.52,6.39-9.78,3.97-19.7,7.53-29.77,10.71-4.85,1.53-9.43,3.9-14.19,5.78-8.85,3.49-17.19,8.55-26.26,11.08-9.14,2.55-17.87,6.74-27.71,7.14-11.68.47-19.99-4.88-27.06-13.26-10.58-12.53-21.2-25.04-31.72-37.62-6.16-7.37-11.71-15.32-18.35-22.22-16.56-17.23-30.97-36.29-46.79-54.15-15.48-17.48-30.14-35.69-44.94-53.76-9.01-10.99-13.68-24.37-19.75-37.01-4.8-9.99-8.23-20.49-11.38-30.93-3.18-10.54-5.62-21.84-.71-32.97,1.8-4.08,4.07-7.22,8.92-7.47.2,1.68,1.3,3.24.72,5.03-5.01.9-6.4,4.97-7.39,9-2.64,10.74,1.56,20.51,4.79,30.39,3.23,9.87,7.61,19.3,11.37,28.97,3.39,8.73,6.98,17.5,11.99,25.55,8.72,14.02,21.71,24.44,31.33,37.81,9.65,13.41,20.76,25.85,31.87,38.12,6.99,7.72,13.97,15.47,20.88,23.25,9.79,11.03,19.23,22.37,28.79,33.6,5.91,6.94,12.22,13.61,17.52,20.99,6.9,9.61,14.7,18.35,23.13,26.56,4.62,4.5,9.86,5.56,13.5,3.31,2.83,1.9,5.72,2.23,8.72.39Z"/>
  <path class="cls-2" d="m540.9,188.14c-3.79-1.35-6.1-4.56-8.51-7.39-7.04-8.24-13.76-16.75-20.58-25.17-.51-.63-.88-1.37-1.65-2.6,4.66-1.36,9.04-2.7,13.46-3.91,6.29-1.72,12.5-3.68,18.53-6.18,5.36-2.25,8.36.8,11.56,4.57,7.92,9.32,15.3,19.14,24.36,27.46-4.98,3.04-10.63,4.3-16.09,6.1-7.04,2.32-14.06,4.74-21.08,7.11Z"/>
  <path class="cls-5" d="m574.1,187.83c-2.99,5.76-9.28,5.85-14.26,7.88-5.15,2.1-10.82,3.04-16.32,4.18-4.75.98-6.18.18-8.09-3.79,11.89-4.09,23.73-8.16,35.57-12.23.62.08,1.24.17,1.86.25.41,1.24.83,2.47,1.24,3.71Z"/>
  <path class="cls-4" d="m540.9,188.14c7.03-2.38,14.04-4.79,21.08-7.11,5.45-1.8,11.1-3.07,16.09-6.1,2.77,3.64,2.28,4.32-3.77,5.15-2.41.22-5.06-.13-6.34,2.72-.66.04-1.32.07-1.99.11-1.33-1.38-1.71-.37-2.03.8-6.37,2.46-12.86,4.51-19.6,5.74-.87-.06-1.75-.11-2.62-.16-.28-.38-.55-.76-.83-1.14Z"/>
  <path class="cls-2" d="m567.96,182.79c1.28-2.85,3.93-2.5,6.34-2.72-1.18,1.1-1.35,2.56-1.44,4.05-.62-.08-1.24-.17-1.86-.25-.68-1.31-2.09-.56-3.04-1.08Z"/>
  <path class="cls-5" d="m170.95,105.18c-.37.25-.75.51-1.12.76.19-.53.46-.92,1.12-.76Z"/>
  <path class="cls-1" d="m464.01,237.08c-1.09-.29-2.18-.59-3.63-.98-.24,2.92-1.74,4.35-4.71,5.13-5.66,1.49-11.1,3.79-16.71,5.53-1.8.56-3.82,2.23-5.73-.39-.54-.74-2.96-1.06-3.14.82-.47,4.77-3.67,2.74-6.09,2.76-1.87-4.28-4.38-.49-6.55-.45-2.74.05-3.03,1.97-2.54,4.18-.9-.16-1.76-1.35-2.68-.48-6.55,6.13-15.77,5.92-23.23,9.85-1.94-1.19-3.47-3.49-6.28-2.3-2.6.4-5.8.23-4.39,4.52-3.81,1.8-7.53,3.71-11.65,4.93-2.44.72-3.65.06-5.13-1.29-.2-.3-.4-.6-.6-.91-1.56-2.69-3.11-5.39-4.67-8.08-.19-.8-.03-1.79-1.09-2.16v-.02c0-1.49.27-3.05-.06-4.47-4.39-18.85-9.32-37.56-16.99-55.4-9.9-23.04-22.1-44.7-38.82-63.58-5.27-6.81-12.01-12.15-18.77-18.34,6.73-3.37,13.67-4.5,20.24-6.58,15.84-5.02,31.85-9.49,47.74-14.34,27.88-8.51,55.8-16.89,83.53-25.87,6.9-2.23,11.17.78,15.31,4.72,6.82,6.49,13.92,12.89,19.62,20.32,7.72,10.06,14.78,20.7,20.98,31.84.3.34.6.67.89,1.01,4.29,9.67,8.58,19.34,12.86,29,2.65,8.03,4.56,16.3,8.01,24.06-.02,1.76.45,3.38,1.35,4.88,0,2.14-.45,4.4.08,6.39,2.65,10.02,3.18,20.25,3.58,30.51-5.55,1.67-10.77,4.46-16.68,4.86.15-1.34.31-3.02-1.53-2.9-1.44.1-3.52-.32-4.19,1.72-.34,1.03.61,1.32,1.48,1.41-.14,2.86-3.14,3.18-4.52,3.53-6.26,1.58-11.92,4.8-18.18,6.28-.36-2.3-2.57-2.58-3.95-3.96-1.36,1.4-3.17,2.1-3.16,4.22Zm-111.8-89.3c.24.43.48.85.72,1.28,1.22,1.49,2.76-.12,4.08.43.82.71,1.48.55,2.01-.36,2.86-1.7,2.71-3.13-.38-4.3-.6.11-1.21.23-1.81.34-1.08-.44-1.84.34-2.71.7-.26-1.96.93-2.45,2.56-2.89,4.54-1.23,9.08-2.49,13.52-4.06,4.33-1.53,9.11-2,13.5-5.06-6.57-9.42-13.07-18.38-21.25-26.04-1.44-1.35-2.5-.65-3.97-.16-6.14,2.04-12.36,3.82-18.54,5.76-5.92,1.86-11.82,3.81-18.06,5.82,5.99,7.42,12.09,14.12,17.13,21.54,3.01,4.43,5.6,6.83,10.91,4.38,1.3-.6,2.19.24,1.95,1.81-.16.22-.32.45-.48.67.28.05.55.1.82.14Zm77.28-24.09s0,0,0,0c-.49-.21-.97-.41-1.46-.62-1.39.45-2.79.89-4.51,1.44,1.62.82,2.77,1.31,3.5,2.81.6,1.24,1.04.08,1.03-.75,1.56.71,2.7-.07,3.78-1.05-.78-.62-.2-2.99-2.36-1.83Zm-14.55,102.39c.36.64.72,1.28,1.08,1.92-.1,1.72.04,2.96,2.37,2.03,2.57-1.02,5.24-1.8,8.01-2.73-.42-1.28-.79-2.39-1.16-3.5-1.84-2.89-3.6-2.98-5.27.14h0c-1.36.09-2.73.17-4.09.26-1.66-.12-2.8.64-4.1,2.23,1.43-.16,2.3-.26,3.17-.35Zm-33.05,22.81c-1.71-.81-2.13-4.25-5.17-2.5.2,1.41-.03,2.96,1.5,4.05,1.31-.29,2.84-.05,3.98-1.23.61-.22,1.25-.37,1.81-.68.8-.45,1.97-.64,1.9-1.91-.04-.67-.41-1.48-1.11-1.34-.88.19-1.87.64-2.45,1.3-.45.51-.33,1.52-.47,2.31Zm37.11-66.88c-.19-.18.02-1.11-.68-.37.23.12.46.24.69.35,0,1.5.58,2.41,2,1.25,2.41-1.96,2.23-4.09.14-5.93-5.54-.43.74,3.98-2.15,4.7Zm38.98,20.97c1.23,2.25,2.26,4.85,5.77,3.19.35-1.71.9-3.49-.93-5.08-1.63.55-3.53.36-4.78,1.95-1.28.04-2.87-.28-3.02,1.62-.13,1.58-.28,3.37,2.23,3.89,1.42-1.7.51-3.74.73-5.57Zm-53.99-53.99c2.5,1.73,4.9,4.32,8.02,1l.32.21c-.12-.06-.23-.12-.35-.18l-.15-1.06c4.12-.4,7.9-2.34,13.23-2.26-2.18-1.94-1.96-4.94-4.76-4.3-3.43.78-7.27,1.09-9.32,4.73-2.81-1.18-5.39-1.5-6.96,1.9-.57,0-1.3-.25-1.4.65-.02.19.36.61.57.62.98.05.63-.8.79-1.31Zm42.67-31.34c-2.35.14-4,1.15-4.56,3.68,2.41,1.92,4.9,1.21,7.36.41,1.8-.59,3.28-1.47,2.59-3.84-.3-1.03-.61-1.96-1.88-1.74-2.63.44.48,3.05-1.29,3.81-1.51.16-1.72-.75-1.72-1.83.19-.21.58-.55.55-.6-.37-.52-.72-.24-1.05.1Zm-34.97,94.62c1.03,2.92,2.2,1.01,3.9.04-1.49-.23-2.44-.37-3.39-.52.03-2.53-.86-4.39-3.73-3.62-2.75.73-6.02,1.34-6.36,5.02-.17,1.86,2.28,3.75,2.86,2.47,1.53-3.41,5.31-.86,6.74-3.39Zm-21.7-87.25c2.87,2,4.91,1.39,5.87-2.32,1.46,1.18,2.72,1.91,3.2,3.49.31,1.04,1.29.87,2.08.77.79-.09.96-.77,1-1.46.16-3.29-6.45-8.57-10.02-7.95-.14,1.44-.28,2.88-.42,4.39-3.39.32-6.11-3.75-9.66-1.26q5.8,9.41,9.5,8.76c-.45-1.53-2.77-2.44-1.48-4.55l-.06.13Zm-12.49,68.9c2.61,3.04,5,1.7,7.52-.05-.48-2.51-2.7-3.07-3.71-4.58-2.91.82-5.6,1.59-5.73,5.97-5.3-6.54-8.66,2.14-13.19.41-.83,1.67-.68,3.25,0,4.82q5.16.48,6.02-3.61c3.94,3.1,7.97,1.82,9.1-2.95Zm57.43-77.19c-2.5-1.94-6.53-2.13-5.49-6.6.16-.68-1.41-2.14-2.98-2.14-3.58,0-7.21-.24-10.26,2.29q7.81,9.34,9.45,9.12c1.45-1.57-1.22-2.63-.17-4.42,2.91.86,5.62,2.69,9.44,1.76Zm-53.2-11.15c5.01,1.41,4.86,8.35,11.02,7.32-.55-1.41-.97-2.48-1.41-3.6,3.62-.78,6.37,3.46,10.03.59-2.4-1.76-6.81-1.07-5.7-5.69.06-.25-.96-1.09-1.47-1.08-3.81.04-7.82-1.07-12.47,2.46Zm37.24,16c-4.87-3.33-7.82-9.51-15.13-8.37.92,4.21,1.76,8.03,2.92,13.3,3.35-4.97,7.22-6.45,12.21-4.92Zm3.06,98.15c-1.92-2.08-.31-7.99-5.45-4.62-4.09,2.68-7.68,5.76-13.21,3.55.55,2.56.92,4.29,1.5,7.02,4.95-4.29,11.05-3.69,17.16-5.94Zm17.5-121.15c-3.24-3.47-4.13-8.78-10.05-8.52-.35,1.64,1.89,2.05,1.38,3.33-3.51,4.38-6.71-2.38-10.19.08,3.3,2.46,4.19,8.13,9.87,7.43.3-1.59-2.71-2.08-1.06-3.82,3.82-4.05,5.66,2.7,10.04,1.5Zm-14.9,137.86c.72-2.07,1.15-4.13-.83-5.8-.99-.84-2.01-.16-2.52.66-2.7,4.34-6.92,3.39-11.04,3.25-.39,2.28-1.01,4.52,1.25,6.18,4.59-.94,8.03-4.95,13.15-4.29Zm.76-72.25c3.97-1.81,7.72-1.96,10.67-4.15-3.32-5.82-7.49-5.57-14.27.95,2.28-.1,3.41.96,3.59,3.2Zm-16.44-66.18c2.67,5.42,7.92,1.58,11.52,3.63-1.66,2.48-4.17,2.14-6.52,2.72,2.99,3.53,5.46.3,7.95-.39,2.53-.71,2.44-2.62,1.55-5.07h-8.74c-1.74-2.15.63-2.39.8-3.6-2.91-.87-5.12-.11-6.57,2.71Zm-37.87,10.4c2,2.19,3.91,4.01,5.49,6.09,1.1,1.45,2,3.7,3.98,2.03,1.75-1.48-.53-2.77-1.33-4.02,1.02-1.2,3.12-.87,3.75-2.55-.57-2.04-2.71-.15-3.42-1.41-.07-1.01,1.67-1.36.84-2.35-3.52-.87-6.28.52-9.3,2.22Zm51.88,47.52c.02-2.73-.69-5.01-2.63-4.88-5.14.33-8.87,3.4-12.18,7.75,5.71,1.23,9.6-3.29,14.81-2.87Zm21.93-42.31c-.2-3.99-6.9-5.54-3.37-10.46-4.04-.88-7.22.92-10.66,3.63,5.31-2.32,6.87,1.37,9.01,4.47,1,1.45,2.15,3.62,5.02,2.36Zm-47.12,53.31c1.48,1.74,3.01,2.86,2.93,5.19,3.53-2.06,8.36-1.09,9.05-6.01-4.03-2.69-7.72-.87-11.98.82Zm-14.71,68.07c-4.09,1.21-8.41,1.75-6.65,7.6q9.16-1.8,6.65-7.6Zm76.23-66.34c.4-1.77,2.32.11,2.19-1.61-.05-.69.35-1.9-.87-2-1.98-.17-4.14-.29-5.67,1.14-1.46,1.37-.74,3.45-.16,4.89.67,1.67,2.64,1.08,4,.7,1.4-.39,2.67-1.24,4.69-2.24-1.85-.39-2.89-.61-4.19-.88Zm-5.18,26.67c1.71,3.33,4.22,4.34,7.13,2.34,1.7-1.17,1.36-3.88-.18-4.63-2.63-1.29-5.12-.05-6.95,2.29Zm-79.44,23.82c-1.13,1.39-4.36.14-4.18,3.14.09,1.46.6,3.8,2.75,3.4,1.86-.35,4.49-.37,4.74-3.39.2-2.37-1.57-2.53-3.31-3.15Zm22.14-118.88c6.21,9.66,6.77,10.01,11.1,7.24-4.59-.93-4.36-8.84-11.1-7.24Zm-18.25,153.9c1.28,1.95,1.29,4.83,4.64,4,1.42-.35,3.19-.09,3.67-1.88.55-2.03-.59-3.41-2.34-4.52-1.95.78-3.9,1.56-5.98,2.4Zm47.08-36.48c6.42-.95,7.03-2.1,3.39-6.69-2.4,1.61-5.18,2.88-3.39,6.69Zm13.62-97.44q-6.62,2.84-5.77,5.37,6.37-2.05,5.77-5.37Zm20.62,104.56c.3-2.58,6.39-2.39,3.2-6.69-6.05,1.63-6.16,1.83-3.2,6.69Zm-46.51,24.14c.84-2.5,1.23-4.29-.25-5.94q-5.23,1.46-4.54,5.84c1.5-2.41,2.96-.61,4.79.1Zm79.92-50.23c-1.3,2.34-4.12,3.57-2.14,6.38,1.02,1.44,2.81,1.15,3.84.03,2.4-2.6-.92-3.85-1.7-6.41Zm-73.62,7.02c.7,1.38,1.32,2.61,1.97,3.87,1.63-.99,3.55.11,4.87-1.53-1.16-3.44-2.88-5.34-6.84-2.34Zm13.92,35.02c1.46-.07,2.84-.13,4.17-.2.59-2.1.86-3.83-.91-5.7-1.22,1.91-5.52,1.32-3.26,5.9Zm-65.61-93.91c2.05-1.06,5.29-1.63,3.63-4.25-1.26-1.99-4.19-.4-6.61.15,1.06,1.46,1.9,2.61,2.98,4.1Zm33.96,42.62c.66-1.98,2.6-1.83,4.02-2.61-.25-1.66-.61-3.04-2.68-4.08.76,4.1-2.61,1.38-3.79,2.69.45,1.22.35,2.63,2.45,4Zm4.74-60.09c2.25,5.44,6.22.15,8.46,2.72-1.27-5.8-4.86-3.26-8.46-2.72Zm88.8,85.08c1.9-2.98,2.11-4.91.41-6.76-.57-.62-1.71-.88-2.21-.14-1.69,2.54.48,4.1,1.79,6.9Zm-113.27-72.43c2.35-.26,4.22-.72,3.76-2.9-.57-2.68-2.73-2.2-4.99-1.7.42,1.57.79,2.95,1.23,4.6Zm115.05,79.69c-.55-3.18-1.13-5.31-4.53-4.71-.13,1.61-.25,3.15-.4,5.01,1.58-.89,2.98-.66,4.93-.29Zm-65.18-42.36c2.69-.32,5.16-.51,4.57-4.1-.06-.35-.66-.61-1.21-1.09-.31,1.09-.56,1.99-.8,2.87-1.03-.07-.94-2.36-2.55-1.25v3.57Zm-18.28-17.9c-.38,2.78,2.74,2.85,3.12,5.05,1.72-3.53-1.77-3.61-3.12-5.05Zm-48.72-16.27c-.64.4-1.73-.92-2.07.57.81.37,1.54.44,2.07-.57Zm-15.65,3.12c-.65.05-.99.38-.83.94.06.2.64.46.76.38.34-.25.57-.65.85-.99-.29-.12-.57-.23-.78-.32Zm51.9-14.01c-.14.26-.43.56-.37.74.12.37.31,1.03.9.41.18-.19.29-.6.21-.83-.06-.17-.48-.22-.74-.32Zm6.26,101.37c-.08.1-.2.19-.21.3-.01.11.09.23.14.35.08-.1.2-.2.22-.3.01-.11-.09-.23-.15-.34Zm55.25-12.13l-.35-.19-.03.32.37-.13Z"/>
  <path class="cls-5" d="m299.32,134.32c16.72,18.88,28.93,40.54,38.82,63.58,7.66,17.84,12.6,36.54,16.99,55.4.33,1.42.07,2.97.08,4.47-.48,0-1.22.21-1.4-.02-3.84-5.01-7.7-10-11.34-15.14-1.06-1.5-.63-3.27,1.13-4.28,1.09-.63,2.69-.55,3.06-2.83-2.63-2.35-5.61-1.85-8.23.06-2.81,2.05-3.22,5.02-1.16,7.92,5.38,7.56,10.81,15.08,16.32,22.56,1.28,1.74,2.87,3.32,5.4,2.98h0c.55,6.81,4.96,10.5,10.74,12.88,1.43.59,2.41,1,2.18,2.66-.22,1.54-1.31,2.69-2.69,2.37-4.97-1.14-9.97-.38-14.98-3.61-7.24-4.67-11.38-11.8-17.32-17.38-4.12-3.86-7.6-8.2-11.15-12.54-1.4-1.71-2.25-3.24-1.3-5.38,1.64-3.72-.47-6.21-3.16-8.02-19.21-12.9-36.09-28.53-51.28-45.78-8.08-9.18-17.13-18.15-20.41-30.76-1.58-6.08.51-10.91,5.09-13.61,12.82-7.57,27.49-9.27,41.3-13.66,1.27-.4,2.65-.41,3.3-1.84Z"/>
  <path class="cls-5" d="m514.73,221.92c-.39-10.26-.93-20.5-3.58-30.51-.53-2-.08-4.26-.08-6.39,6.93-3.76,9.51,2.24,13.16,5.85,3.53,3.49,4.88,9.25,10.73,10.34,1.18,6.91,7.79,10.4,10.36,16.45.7,1.66.65,2.69-1.03,3.7-4.27,2.55-11.31,1.9-15.5-1.34-1.96-1.52-4.3-.6-6.44-.11-2.56.58-5.08,1.34-7.62,2.03Z"/>
  <path class="cls-5" d="m509.73,180.13c-3.45-7.76-5.36-16.03-8.01-24.06,15.35,5.25,20.8,18.93,27.4,31.86-5.53-5.3-10.45-11.49-19.39-7.8Z"/>
  <path class="cls-3" d="m431.02,384.14c1.67-.36,3.28.91,4.86-1.84,2.09-3.65,4.11.8,5.94,1.81,2.13-1.3.24-4.86,3.54-4.95,1.1,1.54.33,2.96-.12,4.51-.44,1.54-.35,3.23-.49,4.76-3.04,1.67-3.68-2.38-5.93-2.36-1.36,1.3-.35,2.97-.94,4.24-1.03,2.22-2.11,2.39-2.94-.17.11-1.23.22-2.46.37-4.1h-3.36l-1.04-.82c.04-.36.08-.71.12-1.07Z"/>
  <path class="cls-3" d="m399.97,402.94c.02-1.33,0-2.66.07-3.98.32-6.13,3.3-7.84,10.87-6.3.01.39.03.79.04,1.18,0,1.05.01,2.11.02,3.16l.05-.04c-3.26,1.62-7.56,1.74-8.71,6.37-.19.78-1.44.54-2.26.42,0-.27-.03-.55-.06-.82Z"/>
  <path class="cls-4" d="m410.94,393.84c-.01-.39-.02-.79-.04-1.18,3.78-5.13,4.31-5.33,10.78-4.05-1.31,2.93-4.92-.06-6.48,2.81,1.98,1.45,4.62-.37,6.62,1.41.48,4.83-3.79,5.58-6.82,6.97-1.96.9-4,.01-4-2.83,0,0-.05.04-.05.04,2.74-.11,6.09,2.04,8.21-2.61-3.12.59-5.77.71-8.23-.56Z"/>
  <path class="cls-5" d="m582.99,197.01c-2.98,2.65-6.92,2.99-10.46,4.22-8.84,3.09-17.68,6.22-26.73,8.47-.53-1.19.04-1.46.69-1.67,11.01-3.59,22.02-7.19,33.06-10.72,1.07-.34,2.29-.21,3.44-.3h0Z"/>
  <path class="cls-4" d="m399.97,402.94c.03.27.06.54.06.82-2.86,2.04-6.23,2.75-9.49,4.03-.96-11.26-2.13-11.08,7.95-12.51-.73,2.74-4.87,1.13-5.28,4.16,1.81,1.82,3.65-1.68,5.45.1-1.04,3.11-5.78.95-6.75,4.72,3.1,1.2,5.32-1.8,8.04-1.31Z"/>
  <path class="cls-4" d="m431.02,384.14c-.04.36-.08.71-.12,1.06-1.58.04-2.96.61-3.91,1.87-1.06,1.4-2.87,2.73-1.53,4.77,1.31,2,3.14,1.34,4.87.47.26.26.52.52.77.77-1.74,1.84-3.82,3.82-6.34,2.57-2.3-1.14-2.24-3.94-1.61-6.22.75-2.72,1.81-5.42,5.4-5.42.82,0,1.64.07,2.46.11Z"/>
  <path class="cls-7" d="m414.92,253.68c-.49-2.21-.2-4.13,2.54-4.18,2.17-.04,4.68-3.84,6.55.45-1.92,3.95-4.97,5.14-9.09,3.74Z"/>
  <path class="cls-4" d="m464.01,237.08c-.01-2.12,1.8-2.82,3.16-4.22,1.38,1.39,3.59,1.66,3.95,3.96-2.38-.3-4.65,2.64-7.11.26Z"/>
  <path class="cls-5" d="m488.86,127.07c-.3-.34-.6-.67-.89-1.01,3.7-2.13,8.11-.41,11.88-2.2,0,0,.27.23.27.23-3.06,3.6-7.29,2.79-11.26,2.98Z"/>
  <path class="cls-7" d="m493.81,227.01c-.87-.08-1.82-.38-1.48-1.41.66-2.04,2.75-1.62,4.19-1.72,1.84-.12,1.69,1.56,1.53,2.9-1.22,3.54-2.81.51-4.24.23Z"/>
  <path class="cls-7" d="m382.72,260.75c2.81-1.19,4.34,1.11,6.28,2.3-2.52,1.2-4.87,3.14-7.97,1.84,1.37-1.05,4.04-1.58,1.69-4.14Z"/>
  <path class="cls-4" d="m382.72,260.75c2.35,2.57-.32,3.09-1.69,4.14-.9.13-1.8.25-2.71.38-1.41-4.3,1.79-4.12,4.39-4.52Z"/>
  <path class="cls-4" d="m431.95,386.02h3.36c-.15,1.65-.26,2.87-.37,4.1-1.28.99-2.56,1.98-3.84,2.97-.26-.26-.52-.52-.77-.77,1.21-1.93,2.56-3.82,1.62-6.3Z"/>
  <path class="cls-2" d="m563.95,183.7c.32-1.17.7-2.18,2.03-.8-.45.85-1.15,1.04-2.03.8Z"/>
  <path class="cls-5" d="m500.88,121.9c.11-1.03.23-2.06.39-3.47,1.12,1.62.88,2.7-.09,3.72,0,0-.3-.25-.3-.25Z"/>
  <path class="cls-7" d="m541.73,189.28c.87.05,1.74.1,2.62.16-.98,1.66-1.86,1.73-2.62-.16Z"/>
  <path class="cls-5" d="m501.18,122.16c-.35.64-.71,1.29-1.06,1.93,0,0-.27-.23-.27-.23.34-.65.69-1.3,1.03-1.95,0,0,.3.25.3.25Z"/>
  <path class="cls-5" d="m360.95,268.01c.2.3.4.6.6.91-.85.03-1.7.05-2.55.08h0c.38-.86,1.18-.9,1.95-.99Z"/>
  <path class="cls-4" d="m351.24,564.47c-3.64,2.25-8.88,1.2-13.5-3.31-8.43-8.21-16.23-16.94-23.13-26.56-5.3-7.38-11.61-14.05-17.52-20.99-9.56-11.23-19-22.57-28.79-33.6-6.91-7.79-13.89-15.53-20.88-23.25-11.12-12.28-22.22-24.71-31.87-38.12-9.62-13.37-22.61-23.78-31.33-37.81-5.01-8.06-8.59-16.83-11.99-25.55-3.76-9.67-8.14-19.1-11.37-28.97-3.23-9.87-7.43-19.64-4.79-30.39.99-4.03,2.38-8.1,7.39-9,.73,3.31.39,6.66.31,10-2.66,1.13-2.55,3.66-2.75,5.86-.43,4.7,1.34,8.93,2.56,13.42,4.44,16.29,11.75,31.41,18.25,46.83,7.08,16.79,19.29,30.38,30.98,44.03,8.62,10.06,16.47,20.75,25.42,30.54,4.68,5.12,8.36,11.22,13.35,15.99,8.81,8.43,17.08,17.27,24.63,26.84,8.91,11.29,18.1,22.36,27.38,33.35,6.18,7.32,14.04,13.27,18.92,21.54,4.38,7.42,11.04,12.59,16.33,19.07,1.58,1.94,3.5,3.03,6.07,2.67l6.32,7.42Z"/>
  <path class="cls-7" d="m344.92,557.05c-2.57.36-4.49-.73-6.07-2.67-5.29-6.47-11.95-11.65-16.33-19.07-4.88-8.27-12.74-14.21-18.92-21.54-9.28-11-18.47-22.06-27.38-33.35-7.55-9.57-15.82-18.41-24.63-26.84-4.98-4.77-8.66-10.87-13.35-15.99-8.95-9.79-16.8-20.47-25.42-30.54-11.69-13.65-23.9-27.24-30.98-44.03-6.5-15.41-13.81-30.53-18.25-46.83-1.22-4.49-2.99-8.71-2.56-13.42.2-2.2.09-4.73,2.75-5.86-.28,8.84,2.89,16.79,6.14,24.79,6.5,15.98,12.8,32.05,19.14,48.1,2.88,7.3,8.86,12.32,13.59,18.19,13.43,16.65,27.34,32.91,41.16,49.25,15.32,18.12,30.77,36.13,46.12,54.23,18.14,21.39,36.23,42.83,54.32,64.26.31.36.45.87.67,1.31Z"/>
  <path class="cls-5" d="m564.22,468.5c1.27-7.35,2.56-14.31,3.63-21.29.48-3.15,2.09-5.12,4.99-6.18,12.44-4.55,24.87-9.14,37.33-13.63,3.48-1.25,5.25.33,4.82,3.86-.89,7.37-1.9,14.73-3.09,22.05-.5,3.06-4.94,5.47-7.83,3.94-4.29-2.28-7.66-.21-11.12,1.49-2.09,1.02-3.7,2.33-5.25-.68-.76-1.48-2.3-.88-3.57-.44-3.43,1.2-6.95,2.22-10.26,3.7-2.62,1.17-6.31,1.39-6.27,5.78,0,.98-1.55,1.58-3.4,1.39Z"/>
  <path class="cls-5" d="m550.44,461.99c2.24,1.51.79,4.6,3.96,4.41-4.23,1.23-4.81-.58-3.96-4.41Z"/>
  <path class="cls-5" d="m552.5,460.65c.65-1.54,1.73-1.78,2.84-2.01,1.04.72.89,1.85.32,2.48-1.3,1.44-2.06-.23-3.17-.47Z"/>
  <path class="cls-5" d="m573.06,464.36c.18.21.34.41.51.61-.3.19-.61.38-.91.57-.1-.26-.32-.55-.26-.75.06-.19.42-.28.66-.43Z"/>
  <path class="cls-5" d="m351.87,146.97c.23-1.57-.65-2.41-1.95-1.81-5.31,2.45-7.9.06-10.91-4.38-5.04-7.42-11.14-14.12-17.13-21.54,6.24-2.02,12.14-3.96,18.06-5.82,6.17-1.94,12.4-3.72,18.54-5.76,1.47-.49,2.53-1.19,3.97.16,8.18,7.66,14.68,16.62,21.25,26.04-4.39,3.06-9.16,3.53-13.5,5.06-4.43,1.56-8.98,2.82-13.52,4.06-1.63.44-2.82.93-2.56,2.89-.23.64-.46,1.28-.69,1.92-.41,0-.82,0-1.22,0,.11-.36,0-.64-.34-.81Zm7.43-10.65c-2.12-2.79-4.09-5.37-6.01-7.89,3.18-1.66,6.91-1.76,9.99-4.22-2.48-3.13-5.06-2.29-8-1.38-2.34.72-5.49,3.02-6.94-1.45,2.66-2.49,7.21-1.39,10.4-5.5-8.18-1.87-14.11,2.28-20.7,4.1,4.18,5.44,8.43,10.1,11.65,15.39,3.08,5.06,5.87,3.44,9.59.94Z"/>
  <path class="cls-6" d="m360.95,268.01c-.77.09-1.57.13-1.95.98-2.53.34-4.12-1.23-5.4-2.98-5.5-7.47-10.94-14.99-16.32-22.56-2.07-2.91-1.66-5.87,1.16-7.92,2.62-1.91,5.6-2.41,8.23-.06-.37,2.28-1.97,2.2-3.06,2.83-1.76,1.02-2.19,2.78-1.13,4.28,3.65,5.14,7.51,10.14,11.34,15.14.18.23.92.03,1.4.02,0,0-.01.02-.01.02-.34,1.08-.13,1.87,1.09,2.15,1.56,2.69,3.11,5.39,4.67,8.08Z"/>
  <path class="cls-5" d="m390.05,124.88c-1.29,2.12,1.03,3.03,1.48,4.55q-3.69.65-9.5-8.76c3.55-2.49,6.27,1.58,9.66,1.26.14-1.51.28-2.96.42-4.39,3.57-.62,10.18,4.66,10.02,7.95-.03.69-.21,1.36-1,1.46-.79.09-1.76.27-2.08-.77-.47-1.57-1.74-2.3-3.2-3.49-.96,3.71-3,4.33-5.87,2.32-.34-.28-.67-.55-1.01-.83-.14.22-.28.45-.42.67.49.29.97.99,1.49.03Z"/>
  <path class="cls-3" d="m377.5,193.91c-1.12,4.77-5.15,6.05-9.1,2.95q-.86,4.1-6.02,3.61c-.67-1.57-.82-3.16,0-4.82,4.53,1.74,7.89-6.95,13.19-.41.13-4.38,2.82-5.15,5.73-5.97,1.01,1.51,3.23,2.07,3.71,4.58-2.52,1.75-4.92,3.09-7.52.05Z"/>
  <path class="cls-5" d="m434.93,116.72c-3.82.94-6.54-.9-9.44-1.76-1.05,1.78,1.62,2.85.17,4.42q-1.64.22-9.45-9.12c3.05-2.53,6.67-2.29,10.26-2.29,1.56,0,3.14,1.46,2.98,2.14-1.03,4.46,2.99,4.66,5.49,6.6Z"/>
  <path class="cls-5" d="m381.73,105.57c4.65-3.53,8.66-2.42,12.47-2.46.51,0,1.53.84,1.47,1.08-1.11,4.62,3.3,3.93,5.7,5.69-3.65,2.87-6.4-1.37-10.03-.59.44,1.12.85,2.19,1.41,3.6-6.16,1.03-6.01-5.91-11.02-7.32Z"/>
  <path class="cls-5" d="m418.98,121.57c-4.99-1.53-8.86-.05-12.21,4.92-1.16-5.26-2-9.09-2.92-13.3,7.31-1.13,10.26,5.04,15.13,8.37Z"/>
  <path class="cls-4" d="m422.04,219.72c-6.11,2.26-12.22,1.66-17.16,5.94-.58-2.73-.95-4.46-1.5-7.02,5.53,2.21,9.12-.87,13.21-3.55,5.14-3.37,3.53,2.55,5.45,4.62Z"/>
  <path class="cls-5" d="m439.54,98.57c-4.38,1.2-6.22-5.54-10.04-1.5-1.64,1.74,1.37,2.22,1.06,3.82-5.68.69-6.57-4.97-9.87-7.43,3.48-2.46,6.67,4.31,10.19-.08.5-1.28-1.73-1.69-1.38-3.33,5.92-.25,6.8,5.06,10.05,8.52Z"/>
  <path class="cls-4" d="m424.64,236.44c-5.11-.66-8.55,3.36-13.15,4.29-2.26-1.66-1.65-3.9-1.25-6.18,4.12.15,8.34,1.09,11.04-3.25.51-.82,1.53-1.5,2.52-.66,1.98,1.66,1.55,3.72.83,5.8Z"/>
  <path class="cls-3" d="m425.4,164.18c-.18-2.24-1.32-3.3-3.59-3.2,6.78-6.53,10.95-6.77,14.27-.95-2.96,2.19-6.71,2.34-10.67,4.15Z"/>
  <path class="cls-5" d="m408.96,98c1.45-2.82,3.66-3.58,6.57-2.71-.17,1.2-2.54,1.45-.8,3.6h8.74c.89,2.44.99,4.36-1.55,5.07-2.49.69-4.96,3.92-7.95.39,2.35-.58,4.86-.24,6.52-2.72-3.61-2.05-8.85,1.8-11.52-3.63Z"/>
  <path class="cls-5" d="m371.08,108.4c3.02-1.7,5.79-3.08,9.3-2.22.83.99-.91,1.35-.84,2.35.71,1.26,2.86-.63,3.42,1.41-.62,1.68-2.73,1.35-3.75,2.55.8,1.25,3.09,2.54,1.33,4.02-1.98,1.67-2.88-.58-3.98-2.03-1.58-2.08-3.49-3.9-5.49-6.09Z"/>
  <path class="cls-4" d="m422.96,155.92c-5.21-.42-9.1,4.1-14.81,2.87,3.31-4.36,7.04-7.42,12.18-7.75,1.94-.13,2.65,2.15,2.63,4.88Z"/>
  <path class="cls-5" d="m444.89,113.61c-2.87,1.25-4.02-.92-5.02-2.36-2.14-3.1-3.7-6.79-9.01-4.47,3.44-2.71,6.62-4.51,10.66-3.63-3.54,4.91,3.17,6.47,3.37,10.46Z"/>
  <path class="cls-3" d="m397.77,166.92c4.26-1.69,7.95-3.51,11.98-.82-.7,4.92-5.52,3.95-9.05,6.01.08-2.33-1.45-3.46-2.93-5.19Z"/>
  <path class="cls-4" d="m410.98,147.12c2.05-3.63,5.9-3.95,9.32-4.73,2.8-.64,2.58,2.35,4.76,4.3-5.33-.08-9.11,1.86-13.23,2.26-1.72.07-1.25-.9-.86-1.83Z"/>
  <path class="cls-3" d="m411.68,212.27c-1.42,2.52-5.2-.02-6.73,3.38-.58,1.28-3.03-.61-2.86-2.47.35-3.69,3.61-4.29,6.36-5.02,2.88-.77,3.77,1.09,3.73,3.62-.16.17-.33.34-.51.49Z"/>
  <path class="cls-3" d="m383.05,234.99q2.52,5.8-6.65,7.6c-1.76-5.85,2.56-6.39,6.65-7.6Z"/>
  <path class="cls-3" d="m459.28,168.65c1.3.27,2.34.49,4.19.88-2.02.99-3.29,1.85-4.69,2.24-1.37.38-3.34.97-4-.7-.58-1.45-1.3-3.53.16-4.89,1.53-1.43,3.69-1.31,5.67-1.14,1.21.1.81,1.31.87,2,.13,1.73-1.79-.15-2.19,1.61Z"/>
  <path class="cls-4" d="m454.1,195.33c1.82-2.35,4.32-3.58,6.95-2.29,1.54.75,1.88,3.46.18,4.63-2.91,2-5.42.99-7.13-2.34Z"/>
  <path class="cls-3" d="m374.66,219.15c1.75.62,3.51.78,3.31,3.15-.25,3.02-2.89,3.04-4.74,3.39-2.15.4-2.67-1.94-2.75-3.4-.18-3,3.05-1.75,4.18-3.14Z"/>
  <path class="cls-5" d="m396.81,100.27c6.74-1.6,6.51,6.31,11.1,7.24-4.33,2.77-4.89,2.42-11.1-7.24Z"/>
  <path class="cls-4" d="m378.56,254.17c2.08-.83,4.03-1.61,5.98-2.4,1.75,1.11,2.89,2.49,2.34,4.52-.49,1.79-2.26,1.54-3.67,1.88-3.36.82-3.37-2.06-4.64-4Z"/>
  <path class="cls-4" d="m447.16,118.14c0,1.08.21,1.99,1.72,1.83,1.77-.76-1.35-3.38,1.29-3.81,1.27-.21,1.58.72,1.88,1.74.69,2.38-.79,3.25-2.59,3.84-2.45.8-4.95,1.5-7.36-.41.56-2.54,2.21-3.54,4.56-3.68.16.17.33.34.5.5Z"/>
  <path class="cls-3" d="m425.64,217.69c-1.79-3.81.98-5.08,3.39-6.69,3.64,4.6,3.03,5.74-3.39,6.69Z"/>
  <path class="cls-4" d="m425.23,223.8c.37,1.11.74,2.22,1.16,3.5-2.77.93-5.44,1.7-8.01,2.73-2.33.93-2.47-.32-2.37-2.03,1.76-.92,5.2-.19,3.95-4.05,0,0,0,0,0,0,1.13.79,1.66,2.45,3.39,2.38.62-.84,1.25-1.68,1.88-2.53Z"/>
  <path class="cls-3" d="m410.98,147.12c-.39.93-.87,1.89.86,1.83.05.35.1.71.15,1.06l.03-.03c-3.13,3.32-5.52.73-8.02-1l.03.04c1.56-3.4,4.14-3.08,6.96-1.9Z"/>
  <path class="cls-7" d="m439.26,120.26q.6,3.32-5.77,5.37-.85-2.53,5.77-5.37Z"/>
  <path class="cls-4" d="m459.88,224.82c-2.97-4.86-2.86-5.06,3.2-6.69,3.2,4.3-2.9,4.11-3.2,6.69Z"/>
  <path class="cls-7" d="m413.38,248.96c-1.83-.71-3.29-2.51-4.79-.1q-.69-4.38,4.54-5.84c1.47,1.64,1.09,3.44.25,5.94Z"/>
  <path class="cls-3" d="m493.3,198.72c.78,2.56,4.1,3.81,1.7,6.41-1.03,1.12-2.82,1.41-3.84-.03-1.98-2.8.84-4.03,2.14-6.38Z"/>
  <path class="cls-4" d="m419.68,205.75c3.96-2.99,5.68-1.1,6.84,2.34-1.32,1.64-3.24.54-4.87,1.53-.64-1.26-1.26-2.49-1.97-3.87Z"/>
  <path class="cls-3" d="m458.03,203.03c1.26-1.58,3.16-1.4,4.78-1.95,1.83,1.59,1.28,3.36.93,5.08-3.51,1.66-4.54-.94-5.77-3.19l.06.06Z"/>
  <path class="cls-4" d="m433.59,240.77c-2.25-4.58,2.04-3.99,3.26-5.9,1.76,1.87,1.5,3.61.91,5.7-1.34.06-2.71.13-4.17.2Z"/>
  <path class="cls-3" d="m367.98,146.86c-1.09-1.49-1.92-2.65-2.98-4.1,2.42-.54,5.35-2.14,6.61-.15,1.66,2.63-1.58,3.19-3.63,4.25Z"/>
  <path class="cls-3" d="m401.94,189.48c-2.1-1.38-2-2.78-2.45-4,1.18-1.32,4.55,1.4,3.79-2.69,2.07,1.05,2.42,2.43,2.68,4.08-1.42.79-3.36.63-4.02,2.61Z"/>
  <path class="cls-7" d="m406.67,129.39c3.6-.54,7.18-3.08,8.46,2.72-2.24-2.57-6.2,2.72-8.46-2.72Z"/>
  <path class="cls-3" d="m495.47,214.46c-1.31-2.79-3.49-4.36-1.79-6.9.49-.74,1.63-.48,2.21.14,1.7,1.84,1.49,3.78-.41,6.76Z"/>
  <path class="cls-7" d="m382.2,142.03c-.44-1.65-.81-3.02-1.23-4.6,2.26-.5,4.42-.98,4.99,1.7.46,2.17-1.41,2.64-3.76,2.9Z"/>
  <path class="cls-4" d="m497.25,221.72c-1.95-.37-3.35-.6-4.93.29.15-1.86.27-3.4.4-5.01,3.4-.59,3.98,1.53,4.53,4.71Z"/>
  <path class="cls-4" d="m418.99,182.01c2.89-.73-3.39-5.13,2.15-4.7,2.09,1.84,2.27,3.97-.14,5.93-1.42,1.16-2,.25-2-1.25v.02Z"/>
  <path class="cls-4" d="m382.19,249.22c-1.14,1.17-2.67.93-3.98,1.22-1.53-1.09-1.29-2.64-1.5-4.05,3.04-1.74,3.45,1.69,5.17,2.5l.31.33Z"/>
  <path class="cls-3" d="m425.23,223.8c-.63.84-1.26,1.69-1.88,2.53-1.73.07-2.26-1.59-3.39-2.38,1.67-3.13,3.43-3.04,5.27-.15Z"/>
  <path class="cls-3" d="m457.97,202.97c-.22,1.84.69,3.87-.73,5.57-2.51-.52-2.36-2.31-2.23-3.89.15-1.9,1.74-1.58,3.02-1.62,0,0-.06-.06-.06-.06Z"/>
  <path class="cls-3" d="m419.96,223.95c1.25,3.86-2.19,3.13-3.95,4.05-.36-.64-.72-1.28-1.08-1.92.77-.4.97-1.08.93-1.88,1.36-.08,2.73-.17,4.09-.25Z"/>
  <path class="cls-3" d="m432.07,179.36v-3.57c1.61-1.1,1.52,1.18,2.55,1.25.25-.88.5-1.78.8-2.87.55.48,1.16.74,1.21,1.09.59,3.59-1.88,3.78-4.57,4.1Z"/>
  <path class="cls-4" d="m381.88,248.89c.13-.79.02-1.79.47-2.31.57-.66,1.56-1.11,2.45-1.3.7-.15,1.07.67,1.11,1.34.07,1.28-1.1,1.46-1.9,1.91-.55.31-1.2.46-1.81.68,0,0-.31-.32-.31-.32Z"/>
  <path class="cls-4" d="m413.79,161.46c1.35,1.43,4.85,1.52,3.12,5.05-.39-2.2-3.5-2.27-3.12-5.05Z"/>
  <path class="cls-3" d="m356.83,145.17c.6-.11,1.21-.23,1.81-.34.52,1.4-.87,2.96.38,4.3-.53.91-1.2,1.07-2.01.36-.55-1.42-1.68-2.81-.18-4.31Z"/>
  <path class="cls-4" d="m428.06,126.57c0,.83-.43,1.99-1.03.75-.73-1.5-1.88-1.99-3.5-2.81,1.72-.55,3.12-1,4.51-1.44,0,1.17.02,2.34.02,3.5Z"/>
  <path class="cls-7" d="m356.83,145.17c-1.51,1.5-.37,2.89.18,4.31-1.32-.55-2.86,1.06-4.08-.43.17-.42.34-.84.51-1.27.23-.64.46-1.28.69-1.92.87-.36,1.63-1.14,2.71-.7Z"/>
  <path class="cls-7" d="m428.06,126.57c0-1.17-.02-2.34-.02-3.5.49.21.97.41,1.46.62-.06.12-.16.25-.17.37,0,.12.09.25.15.38,0-.25,0-.5.01-.75,2.16-1.16,1.58,1.21,2.36,1.83-1.08.99-2.23,1.76-3.78,1.05Z"/>
  <path class="cls-7" d="m415.87,224.2c.03.8-.17,1.48-.93,1.88-.87.1-1.74.19-3.17.35,1.29-1.59,2.44-2.35,4.1-2.23Z"/>
  <path class="cls-7" d="m359.02,149.12c-1.25-1.33.14-2.9-.38-4.3,3.09,1.17,3.24,2.6.38,4.3Z"/>
  <path class="cls-3" d="m412.2,211.78c.95.15,1.9.29,3.39.52-1.7.97-2.87,2.88-3.9-.04.18-.15.35-.31.51-.48Z"/>
  <path class="cls-3" d="m365.06,145.19c-.52,1.01-1.26.94-2.07.57.34-1.49,1.43-.17,2.07-.57Z"/>
  <path class="cls-3" d="m349.41,148.31c.21.08.5.2.78.32-.27.34-.5.75-.85.99-.12.08-.71-.18-.76-.38-.16-.55.18-.88.83-.94Z"/>
  <path class="cls-3" d="m403.99,148.98c-.16.51.19,1.36-.79,1.31-.21-.01-.59-.42-.57-.62.09-.9.82-.65,1.4-.65,0,0-.03-.04-.03-.04Z"/>
  <path class="cls-5" d="m356.28,259.93c-1.22-.29-1.43-1.08-1.09-2.15,1.06.37.89,1.35,1.09,2.15Z"/>
  <path class="cls-3" d="m401.31,134.31c.26.1.68.15.74.32.08.23-.03.64-.21.83-.59.62-.78-.04-.9-.41-.06-.18.23-.48.37-.74Z"/>
  <path class="cls-4" d="m407.57,235.67c.05.11.16.24.15.34-.01.11-.14.2-.22.3-.05-.12-.16-.24-.14-.35.01-.11.14-.2.21-.3Z"/>
  <path class="cls-3" d="m353.44,147.79c-.17.42-.34.84-.51,1.27-.24-.43-.48-.85-.72-1.28.41,0,.82,0,1.23,0Z"/>
  <path class="cls-3" d="m351.87,146.97c.34.18.45.45.34.82-.28-.05-.55-.1-.83-.14.16-.22.32-.45.48-.67Z"/>
  <path class="cls-3" d="m411.98,150.01c.12.06.23.12.35.18-.11-.07-.21-.14-.32-.21,0,0-.03.03-.03.03Z"/>
  <path class="cls-3" d="m429.48,123.69c0,.25,0,.5-.01.75-.05-.13-.15-.25-.15-.38,0-.13.11-.25.17-.37,0,0,0,0,0,0Z"/>
  <path class="cls-4" d="m419.01,181.99c-.23-.12-.46-.24-.69-.35.7-.74.48.19.68.37,0,0,.01-.02.01-.02Z"/>
  <path class="cls-4" d="m446.66,117.64c.32-.34.67-.62,1.05-.1.03.05-.36.39-.55.6-.17-.16-.34-.33-.5-.5Z"/>
  <polygon class="cls-4" points="462.82 223.55 462.45 223.68 462.48 223.36 462.82 223.55"/>
  <path class="cls-6" d="m431.95,386.02c.94,2.48-.41,4.37-1.62,6.3-1.73.86-3.56,1.52-4.87-.48-1.34-2.04.47-3.38,1.53-4.77.95-1.26,2.33-1.83,3.91-1.87.35.27.7.55,1.04.82Z"/>
  <path class="cls-6" d="m410.94,393.84c2.46,1.27,5.1,1.15,8.23.56-2.12,4.65-5.47,2.5-8.21,2.61,0-1.05-.01-2.11-.02-3.16Z"/>
  <path class="cls-1" d="m359.3,136.32c-3.72,2.49-6.52,4.11-9.59-.94-3.22-5.29-7.47-9.95-11.65-15.39,6.59-1.82,12.52-5.97,20.7-4.1-3.19,4.11-7.74,3.01-10.4,5.5,1.45,4.47,4.6,2.17,6.94,1.45,2.94-.91,5.51-1.75,8,1.38-3.08,2.46-6.81,2.56-9.99,4.22,1.92,2.52,3.88,5.11,6.01,7.89Z"/>
  <path class="cls-1" d="m390.05,124.88c-.52.96-1,.26-1.49-.03.14-.22.28-.45.42-.67.34.28.67.55,1.01.83,0,0,.06-.13.06-.13Z"/>
</svg>